<?xml version="1.0" standalone="no"?>
<!DOCTYPE svg PUBLIC "-//W3C//DTD SVG 20010904//EN"
 "http://www.w3.org/TR/2001/REC-SVG-20010904/DTD/svg10.dtd">
<svg version="1.0" xmlns="http://www.w3.org/2000/svg"
 width="512.000000pt" height="512.000000pt" viewBox="0 0 512.000000 512.000000"
 preserveAspectRatio="xMidYMid meet">
<metadata>
Created by potrace 1.13, written by Peter Selinger 2001-2015
</metadata>
<g transform="translate(0.000000,512.000000) scale(0.100000,-0.100000)"
fill="#000000" stroke="none">
<path d="M2003 4829 c-278 -27 -544 -225 -657 -491 l-28 -67 -207 -3 -206 -3
-70 -31 c-209 -94 -432 -212 -468 -248 -77 -76 -82 -99 -82 -376 0 -282 6
-310 83 -392 62 -67 124 -88 252 -88 l100 0 0 -32 c1 -18 31 -609 69 -1313 62
-1178 69 -1284 88 -1326 29 -65 76 -114 141 -146 l57 -28 1485 0 1485 0 57 28
c65 32 112 81 141 146 19 42 26 148 88 1326 38 704 68 1294 69 1311 l0 32 118
4 c95 3 125 8 157 25 55 29 110 88 137 148 22 48 23 60 23 300 0 236 -1 253
-22 297 -40 86 -88 120 -338 239 -126 61 -248 114 -270 119 -22 5 -121 10
-221 10 l-181 0 -29 67 c-113 268 -370 459 -659 493 -104 11 -989 11 -1112 -1z
m1151 -295 c163 -42 296 -159 364 -320 12 -28 26 -92 33 -142 l12 -92 296 0
296 0 195 -94 195 -93 3 -191 2 -192 -1990 0 -1990 0 0 190 0 190 197 95 196
95 298 0 298 0 5 58 c16 155 62 258 156 352 73 73 159 123 246 144 92 22 1101
22 1188 0z m966 -1301 c0 -58 -130 -2550 -136 -2610 l-5 -53 -1419 0 -1419 0
-5 53 c-7 59 -136 2552 -136 2610 l0 37 1560 0 1560 0 0 -37z"/>
<path d="M2045 4261 c-109 -28 -195 -135 -195 -245 l0 -36 710 0 710 0 0 36
c0 88 -59 182 -144 227 -41 22 -46 22 -546 24 -278 1 -518 -2 -535 -6z"/>
<path d="M1806 2980 c-15 -5 -37 -17 -48 -27 -50 -45 -48 -6 -48 -1035 0 -937
1 -964 20 -995 22 -37 53 -58 97 -68 45 -9 117 24 143 67 20 33 20 47 20 996
0 1053 3 997 -58 1040 -34 25 -87 34 -126 22z"/>
<path d="M2516 2980 c-15 -5 -37 -17 -48 -27 -50 -45 -48 -6 -48 -1035 0 -937
1 -964 20 -995 28 -46 65 -67 120 -67 55 0 92 21 120 67 19 31 20 58 20 997 0
939 -1 966 -20 997 -34 56 -102 82 -164 63z"/>
<path d="M3235 2983 c-33 -9 -74 -43 -90 -73 -23 -44 -23 -1936 0 -1980 24
-46 71 -74 126 -74 54 0 91 21 119 67 19 31 20 58 20 997 0 939 -1 966 -20
997 -10 18 -29 39 -42 47 -27 17 -84 27 -113 19z"/>
</g>
</svg>
