<?xml version="1.0" standalone="no"?>
<!DOCTYPE svg PUBLIC "-//W3C//DTD SVG 20010904//EN"
 "http://www.w3.org/TR/2001/REC-SVG-20010904/DTD/svg10.dtd">
<svg version="1.0" xmlns="http://www.w3.org/2000/svg"
 width="300.000000pt" height="418.000000pt" viewBox="0 0 300.000000 418.000000"
 preserveAspectRatio="xMidYMid meet">
<metadata>
Created by potrace 1.10, written by Peter Selinger 2001-2011
</metadata>
<g transform="translate(0.000000,418.000000) scale(0.050000,-0.050000)"
fill="#000000" stroke="none">
<path d="M4317 8091 c-4 -4 -286 -13 -627 -22 -341 -8 -683 -20 -760 -25 -77
-6 -661 -14 -1298 -17 -1363 -7 -1315 2 -1456 -277 -93 -184 -113 -1110 -46
-2130 41 -627 60 -1422 57 -2320 -2 -785 -16 -1040 -99 -1830 -68 -642 -34
-873 153 -1054 196 -190 281 -205 1259 -226 281 -5 654 -19 830 -30 695 -42
1398 -53 1760 -29 77 6 266 14 420 19 374 11 601 38 637 75 17 16 66 35 109
42 459 73 540 466 576 2783 46 3024 -3 4414 -165 4661 -20 31 -23 49 -9 49 39
0 -31 111 -112 178 -41 34 -89 62 -106 62 -17 0 -49 13 -71 28 -81 56 -999
111 -1052 63z m868 -88 c281 -53 456 -279 494 -636 12 -119 26 -253 31 -297
73 -666 67 -3508 -10 -4750 -10 -170 -23 -547 -28 -837 -6 -296 -18 -537 -29
-550 -11 -13 -34 -84 -51 -159 -68 -291 -139 -352 -502 -432 -55 -12 -149 -36
-209 -52 -81 -22 -224 -30 -550 -31 -301 0 -473 -9 -541 -27 -134 -36 -632
-29 -1900 27 -253 12 -577 26 -720 31 -653 27 -769 63 -928 286 -98 140 -105
224 -60 784 23 281 49 614 59 740 38 480 56 962 48 1290 -4 187 -13 579 -19
870 -6 292 -20 697 -30 900 -32 618 -39 842 -52 1560 -16 911 -19 881 97 1052
128 189 3 173 1428 178 692 2 1397 11 1567 19 944 47 1760 62 1905 34z"/>
<path d="M600 7670 c-38 -15 -109 -28 -156 -28 -150 -3 -168 -44 -93 -212 28
-63 64 -174 79 -247 16 -73 78 -281 138 -463 l108 -330 77 -14 c172 -31 265
-20 278 32 7 26 51 122 98 213 l86 165 25 -77 c14 -42 47 -124 74 -182 l49
-107 179 0 180 0 29 69 c16 39 29 85 29 104 0 18 46 137 102 264 56 126 115
275 130 331 67 241 116 392 128 392 7 0 12 -254 11 -565 l-1 -565 134 3 c188
3 272 22 283 63 10 33 35 550 43 884 3 94 11 186 20 206 13 32 2 35 -123 35
-75 -1 -168 0 -207 1 -75 3 -116 -4 -153 -28 -13 -8 -27 -5 -30 6 -4 12 -81
36 -172 55 -259 54 -308 29 -403 -205 -110 -274 -116 -280 -132 -139 -18 163
-22 172 -75 159 -25 -6 -87 -3 -138 6 -134 26 -165 -6 -219 -224 l-44 -178
-46 88 c-26 48 -47 103 -47 121 -1 18 -28 96 -61 174 -33 77 -60 159 -60 182
0 47 -22 49 -120 11z m1390 -54 c102 -28 104 -34 52 -168 -21 -54 -60 -170
-88 -258 -27 -89 -82 -226 -120 -304 -38 -79 -81 -189 -96 -245 -28 -110 -25
-108 -191 -88 l-104 12 -74 178 c-99 235 -90 238 -280 -93 l-80 -140 -123 -6
-122 -6 -24 76 c-12 42 -31 94 -41 116 -19 41 -115 358 -179 590 -20 72 -50
163 -68 204 -42 97 -41 106 13 107 25 1 81 8 125 16 l80 15 57 -156 c31 -86
92 -240 135 -342 43 -102 78 -194 78 -205 0 -10 7 -19 15 -18 27 1 85 53 85
77 0 39 120 430 137 447 36 36 173 -15 179 -66 3 -27 24 -121 47 -209 76 -293
109 -300 160 -34 84 434 194 562 427 500z m476 -38 l96 3 -13 -345 c-7 -190
-16 -395 -20 -456 -3 -60 -7 -130 -8 -155 -1 -42 -10 -45 -131 -45 l-130 0 2
475 c1 538 3 555 65 534 24 -8 86 -13 139 -11z"/>
<path d="M3895 7652 c-118 -52 -119 -59 -105 -667 15 -673 12 -656 105 -687
70 -23 291 -15 405 15 41 10 26 -13 -80 -128 -153 -165 -141 -161 -217 -85
-102 102 -203 71 -141 -44 32 -59 27 -173 -8 -212 -19 -20 -31 -72 -31 -129 0
-96 -23 -191 -77 -315 -85 -196 -160 -338 -214 -408 l-59 -77 -38 46 c-20 25
-32 59 -25 75 11 31 -61 124 -97 124 -11 0 -40 18 -63 40 -29 27 -81 44 -162
51 -215 19 -206 13 -175 133 15 58 22 120 16 139 -41 128 -43 239 -5 259 29
16 36 34 26 77 -10 45 -4 58 29 67 36 9 39 17 20 67 -39 102 93 145 211 67 33
-21 99 -45 148 -52 49 -8 119 -31 156 -53 95 -56 190 -35 245 53 129 208 -107
446 -275 278 -68 -69 -93 -64 -277 49 -332 205 -576 123 -1037 -347 -123 -125
-276 -448 -286 -603 -10 -141 -9 -141 -182 -104 -116 25 -192 -1 -176 -60 7
-30 -6 -38 -79 -46 -101 -12 -178 -67 -147 -105 15 -18 5 -28 -39 -37 -97 -19
-118 -76 -103 -288 l12 -186 -133 -138 c-132 -138 -134 -140 -146 -275 -7 -75
-22 -157 -32 -182 -11 -25 -19 -80 -19 -122 0 -100 -45 -225 -112 -312 -61
-81 -39 -141 46 -124 30 5 46 -1 46 -19 0 -15 17 -27 38 -27 35 0 37 -7 19
-72 -64 -233 62 -505 255 -548 132 -30 147 28 36 142 -102 105 -82 308 23 229
104 -79 180 -6 102 97 -39 51 -43 67 -21 87 32 30 68 33 68 5 0 -11 27 -20 61
-20 70 0 95 42 62 106 -19 37 -21 196 -3 314 10 72 36 -84 38 -231 2 -183 36
-316 122 -480 33 -62 60 -133 60 -158 0 -24 23 -65 50 -91 115 -108 114 -247
-2 -269 -206 -39 -311 -133 -257 -231 56 -102 37 -131 -44 -69 -191 145 -591
145 -762 -1 -237 -204 -338 -530 -265 -864 108 -498 410 -687 872 -544 98 30
159 38 217 28 215 -37 244 -13 290 244 48 269 77 326 169 329 45 1 102 4 125
7 71 7 82 -11 169 -261 91 -263 110 -296 157 -282 168 52 165 52 154 23 -22
-58 67 -90 249 -90 210 0 228 15 222 176 l-5 112 46 -41 c254 -232 739 -437
785 -332 15 36 36 45 97 45 304 0 731 230 811 437 75 191 39 581 -64 697 l-39
44 85 102 c47 56 97 135 110 175 23 65 33 73 101 76 74 3 129 47 129 102 0 53
-48 127 -83 127 -45 0 -48 -26 -7 -60 76 -63 30 -112 -95 -102 -38 3 -59 -7
-67 -32 -51 -162 -166 -326 -228 -326 -9 0 -70 31 -134 69 -162 97 -300 129
-515 122 -203 -7 -431 72 -431 150 0 79 36 136 79 125 23 -6 55 0 71 14 21 18
30 18 30 2 0 -48 141 -95 169 -56 23 30 29 31 51 4 29 -35 100 -40 100 -7 0
14 15 10 37 -10 45 -41 101 -43 116 -4 9 24 26 18 84 -28 134 -105 277 -135
427 -88 l126 40 6 84 c5 67 14 83 45 83 26 0 39 14 39 40 0 22 -13 40 -30 40
-49 0 -110 -76 -110 -138 0 -110 -209 -150 -385 -74 -83 36 -103 80 -27 61 61
-15 80 35 74 191 -5 121 -11 128 -162 184 -102 37 -106 59 -47 262 17 57 42
163 56 234 14 72 46 174 69 229 63 142 -5 329 -154 427 -85 55 -430 48 -530
-11 -116 -69 -106 -74 -300 145 -133 150 -157 207 -115 275 19 30 40 49 47 43
6 -7 34 13 60 43 44 52 53 54 107 32 71 -29 148 -7 192 56 25 35 38 39 81 22
55 -20 154 63 154 131 0 37 29 36 60 -2 53 -64 160 -1 160 94 0 31 19 36 129
36 158 0 204 38 223 185 20 149 82 227 174 218 94 -8 120 40 52 94 l-46 38 45
14 c74 24 44 78 -57 103 -79 19 -84 24 -44 37 56 17 48 58 -13 67 -50 8 -55
29 -13 64 17 14 30 36 30 49 0 14 35 35 78 48 120 36 170 143 66 143 -58 0
-68 24 -24 54 68 48 52 106 -29 106 -38 0 -74 -9 -81 -20 -7 -11 -26 -20 -43
-20 -22 0 -13 20 31 71 139 158 21 246 -146 110 -36 -29 -38 -28 -23 9 34 87
33 108 -7 148 l-42 42 45 1 c25 0 77 18 115 39 39 22 86 45 105 52 19 7 35 21
35 30 0 10 11 18 25 18 30 0 135 127 144 175 4 19 27 94 51 165 92 269 -12
602 -227 727 -193 112 -611 170 -758 105z m475 -49 c220 -58 429 -195 430
-282 0 -17 14 -67 29 -111 104 -288 -65 -640 -349 -726 -213 -65 -263 -74
-395 -74 l-145 0 -8 530 c-4 292 -14 559 -22 595 -25 109 183 140 460 68z
m-1267 -1284 c109 -115 103 -211 -11 -167 -18 7 -32 29 -32 50 0 21 -33 74
-72 118 l-73 80 56 0 c39 0 78 -24 132 -81z m588 -68 c89 -89 47 -271 -63
-271 -174 0 -220 166 -79 285 56 46 84 44 142 -14z m607 -172 c-109 -155 -83
-216 37 -87 101 109 182 168 230 168 49 0 13 -66 -100 -180 -145 -147 -129
-174 48 -80 120 64 176 76 162 35 -4 -14 -64 -47 -131 -75 -115 -46 -159 -98
-72 -84 231 38 333 14 150 -36 -57 -15 -84 -36 -102 -80 -24 -58 -85 -86 -75
-35 3 16 -20 25 -65 25 -64 0 -70 5 -70 60 0 62 -35 75 -112 42 -24 -10 -37 5
-55 67 -29 95 -50 101 -96 26 -19 -30 -37 -58 -39 -62 -14 -20 -78 76 -79 118
-1 27 -8 84 -16 126 -20 100 35 96 90 -7 49 -92 51 -92 186 70 200 240 279
232 109 -11z m-1576 141 c121 -34 205 -102 221 -180 18 -90 14 -92 -58 -31
-95 80 -265 151 -363 151 -87 0 -88 1 -52 40 41 45 135 52 252 20z m676 -38
c35 -22 15 -113 -28 -129 -25 -10 -30 3 -25 67 5 85 9 89 53 62z m-859 -224
c128 -27 284 -132 303 -204 18 -66 15 -66 -77 -5 -144 95 -437 140 -583 89
-82 -29 -93 -17 -41 49 68 86 210 112 398 71z m1568 -168 c7 -17 7 -57 0 -90
-15 -73 0 -75 77 -10 98 83 122 66 55 -41 -46 -74 -20 -114 39 -61 82 75 146
36 76 -47 l-46 -55 -134 80 c-114 68 -134 89 -134 136 0 101 41 155 67 88z
m-139 -55 c24 -68 11 -81 -55 -56 -39 15 -53 34 -53 72 0 73 82 61 108 -16z
m-1292 -138 c105 -48 204 -131 204 -171 0 -31 -32 -35 -51 -5 -99 161 -350
194 -814 105 -68 -13 -71 19 -7 61 125 82 497 87 668 10z m1464 -61 c191 -104
380 -252 380 -297 0 -91 -52 -79 -174 40 -132 128 -267 201 -401 217 -101 11
-112 23 -86 91 25 67 84 56 281 -51z m387 -29 c30 -31 -107 -88 -153 -64 -44
24 -44 24 16 50 67 28 117 33 137 14z m-2375 -149 c45 -37 33 -78 -23 -78 -55
0 -159 88 -140 119 13 21 121 -6 163 -41z m568 28 c0 -37 -93 -106 -142 -106
-76 0 -94 39 -39 83 43 35 181 53 181 23z m1940 -6 c0 -11 -27 -21 -60 -23
-33 -2 -75 -4 -93 -5 -19 -1 -37 9 -42 23 -6 18 21 25 93 25 56 0 102 -9 102
-20z m-2274 -135 c25 -63 44 -79 119 -101 49 -15 117 -44 152 -65 l63 -38 -51
-115 c-91 -206 -223 -326 -359 -326 -152 0 -365 235 -376 415 l-4 74 150 31
c147 29 151 32 190 114 50 105 77 107 116 11z m1584 13 c134 -59 293 -256 314
-388 13 -84 -156 -67 -192 19 -62 147 -240 311 -340 311 -41 0 -41 48 -1 89
35 35 87 27 219 -31z m-2110 -48 c8 -5 19 -75 25 -157 23 -303 270 -554 487
-495 136 37 348 258 348 363 0 18 19 50 42 71 52 47 98 133 98 185 0 47 50 70
97 45 18 -10 78 -23 133 -29 54 -6 108 -24 120 -39 11 -15 47 -40 80 -57 41
-20 59 -42 56 -70 -3 -23 13 -58 35 -78 48 -43 51 -101 6 -125 -25 -14 -30
-36 -22 -87 10 -60 4 -73 -47 -102 -37 -21 -58 -50 -58 -79 -1 -32 -20 -55
-65 -76 -45 -21 -67 -46 -71 -81 -5 -45 -14 -51 -64 -43 -48 7 -63 -1 -83 -44
-26 -59 -46 -62 -116 -23 -57 31 -98 21 -142 -34 -29 -35 -40 -36 -110 -15
-65 19 -89 18 -136 -7 -53 -27 -62 -26 -128 19 -73 49 -145 63 -145 28 0 -31
-100 -23 -112 9 -25 65 -108 98 -150 59 -42 -38 -42 -38 -77 29 -21 40 -36 46
-92 37 -59 -10 -71 -4 -94 42 -18 37 -41 54 -75 54 -38 0 -52 12 -57 50 -8 58
-35 79 -99 80 -32 0 -45 11 -43 35 7 70 -2 83 -71 96 -78 15 -78 16 -50 70 16
30 12 47 -20 79 -50 50 -50 60 1 60 70 0 122 39 115 86 -5 38 5 45 84 55 114
13 146 33 133 84 -10 38 208 42 267 5z m1854 -256 c72 -64 126 -199 113 -282
-23 -135 -108 -151 -121 -22 -11 112 -78 252 -126 264 -48 13 -50 22 -8 68 36
40 76 32 142 -28z m-274 -254 c0 -76 -26 -119 -49 -82 -6 11 -2 25 9 32 13 8
16 42 8 84 -10 51 -7 68 9 58 13 -8 23 -49 23 -92z m-2113 19 c38 0 39 -3 11
-25 -18 -13 -39 -44 -46 -69 -24 -75 -92 -59 -92 22 0 75 16 99 56 84 15 -6
47 -11 71 -12z m2014 -225 c-11 -30 -29 -54 -41 -54 -26 0 -26 54 0 70 12 7
15 22 9 32 -7 11 0 34 14 52 36 44 48 -22 18 -100z m-1879 86 c49 0 49 -55 -1
-120 -48 -61 -77 -40 -95 70 -11 67 -8 75 22 63 20 -7 53 -13 74 -13z m178
-169 c0 -105 -85 -112 -110 -9 -12 47 -7 52 49 54 51 1 61 -6 61 -45z m1600
18 c0 -36 -86 -170 -105 -164 -36 12 -41 55 -7 55 20 0 32 17 32 47 0 25 6 52
13 60 16 16 67 18 67 2z m-2120 -28 c0 -24 148 -112 241 -144 94 -32 143 -117
68 -117 -187 0 -442 179 -365 256 29 29 56 31 56 5z m708 -71 c34 -52 16 -130
-30 -130 -37 0 -85 143 -54 163 39 25 49 21 84 -33z m-109 -116 c28 -75 79
-91 121 -38 l35 42 42 -49 c50 -57 93 -63 112 -16 11 30 16 29 43 -9 50 -72
105 -93 147 -55 32 29 37 29 48 2 14 -36 95 -41 128 -8 18 18 36 11 77 -30 67
-67 73 -66 137 10 l53 63 30 -43 c42 -60 99 -54 151 17 30 41 51 54 65 40 31
-31 52 -24 110 38 62 66 152 66 173 0 40 -128 -393 -282 -801 -285 -253 -2
-662 106 -843 221 -84 54 -69 212 14 161 38 -22 47 -19 75 22 35 53 34 54 83
-83z m300 77 c26 -31 -3 -111 -39 -111 -36 0 -65 80 -39 111 13 16 31 29 39
29 8 0 26 -13 39 -29z m992 -62 c-17 -27 -45 -49 -61 -49 -40 0 -39 6 25 75
62 68 86 50 36 -26z m-774 -42 c-34 -70 -91 -74 -134 -9 -32 48 -31 48 17 37
30 -8 66 -1 89 16 51 38 60 24 28 -44z m616 43 c14 -37 -44 -130 -81 -130 -57
0 -77 54 -41 109 37 56 104 68 122 21z m-488 -38 c44 -33 45 -64 3 -80 -45
-17 -68 3 -68 59 0 55 14 60 65 21z m223 16 c44 -17 40 -74 -7 -117 -43 -39
-76 -28 -100 36 -27 71 27 112 107 81z m-1319 -268 c136 0 171 -21 171 -102 0
-74 -3 -78 -63 -78 -217 0 -474 96 -460 171 5 22 8 67 9 100 l1 62 148 -77
c81 -42 168 -76 194 -76z m2111 -12 c0 -41 -142 -163 -268 -231 -337 -181
-1063 -139 -1528 88 -100 49 -95 42 -113 142 l-14 77 67 -50 c338 -253 1088
-317 1464 -125 75 39 147 71 160 72 12 0 58 26 102 57 81 58 130 47 130 -30z
m575 -33 c97 -124 -21 -417 -209 -518 -108 -59 -125 -39 -68 78 54 111 76 277
46 361 -21 60 -20 60 73 80 130 27 136 27 158 -1z m-479 -39 c39 -39 28 -61
-26 -51 -53 10 -67 -20 -27 -60 35 -35 -29 -54 -82 -26 -61 33 -82 10 -57 -60
28 -82 11 -92 -85 -49 l-81 37 86 54 c47 30 112 82 145 117 63 67 90 75 127
38z m-1886 -127 c41 -31 27 -87 -26 -104 -27 -9 -64 72 -49 110 12 32 26 31
75 -6z m2730 -101 c0 -22 -22 -96 -50 -164 -27 -68 -50 -154 -50 -191 0 -79
-42 -92 -286 -93 -160 0 -158 12 14 108 130 73 216 175 302 358 37 79 69 71
70 -18z m-2485 10 c54 -20 56 -33 12 -81 -50 -55 -86 -45 -118 32 -43 104 -43
104 106 49z m-73 -159 c40 -21 51 -18 89 26 l43 50 54 -67 c62 -79 84 -83 142
-28 l43 40 97 -93 c92 -88 94 -92 39 -78 -235 59 -472 52 -643 -19 -39 -17
-74 -30 -79 -30 -31 0 13 262 55 318 l47 64 34 -79 c19 -44 54 -91 79 -104z
m1654 97 c13 -152 -30 -189 -235 -205 -200 -15 -270 -4 -252 42 6 17 11 40 11
51 0 11 24 5 52 -14 70 -46 144 -14 161 68 l11 59 69 -33 c80 -37 115 -12 100
72 -6 37 0 45 35 40 33 -5 43 -22 48 -80z m-2444 34 c54 -16 177 -35 273 -42
170 -13 195 -26 159 -82 -40 -64 -546 44 -560 120 -8 42 3 42 128 4z m2148
-52 c0 -73 -47 -96 -117 -56 -75 42 -72 69 11 102 93 36 106 30 106 -46z
m-1063 20 c69 -24 76 -37 39 -74 -37 -37 -91 -28 -125 20 -56 80 -32 95 86 54z
m840 -78 c6 -102 -39 -107 -138 -15 l-69 64 70 13 c131 24 132 24 137 -62z
m-553 47 l74 -12 -40 -79 c-46 -91 -79 -83 -174 41 l-49 63 57 0 c32 0 91 -6
132 -13z m301 -70 c-21 -79 -131 -111 -150 -43 -6 20 -17 51 -24 70 -12 28 1
35 82 40 120 7 113 13 92 -67z m-1702 17 l133 -44 -48 -36 c-47 -35 -48 -35
-48 5 0 43 -29 55 -50 21 -20 -32 -70 -23 -70 12 0 24 -13 28 -60 18 -67 -15
-82 15 -25 48 19 12 35 21 35 21 0 0 60 -20 133 -45z m1977 -164 c82 -19 155
-18 443 1 398 27 510 -147 294 -455 -34 -48 -45 -52 -92 -34 -96 37 -288 29
-318 -13 -74 -101 -14 -363 71 -310 16 10 43 -2 73 -32 27 -27 60 -42 78 -35
40 16 42 -49 3 -103 -38 -52 11 -138 97 -170 33 -12 82 -31 108 -41 l47 -19
-67 -47 -67 -46 -60 56 c-180 168 -727 250 -820 123 l-40 -55 -10 138 c-10
140 -49 201 -141 221 -172 37 -183 48 -136 136 12 23 30 92 39 154 9 61 22
139 29 173 13 61 -26 208 -74 286 -19 30 -19 56 2 120 33 98 41 100 86 21 49
-86 151 -79 195 14 l30 63 80 -65 c44 -36 112 -73 150 -81z m-1732 113 c13
-20 -43 -103 -69 -103 -11 0 -19 27 -19 60 0 59 60 88 88 43z m215 -35 c20
-12 23 -88 3 -88 -7 0 -35 20 -61 45 -45 42 -49 42 -67 10 -29 -51 -58 -43
-58 18 0 51 111 60 183 15z m-335 -80 c8 -22 27 -29 57 -22 36 9 56 -5 100
-75 70 -109 69 -122 -5 -78 -33 20 -60 43 -60 51 0 74 -76 3 -86 -79 -6 -52
-17 -115 -25 -139 -10 -35 3 -59 63 -114 78 -71 83 -106 12 -83 -67 21 -161
126 -184 205 -35 116 -19 336 24 336 18 0 40 7 48 15 23 24 43 18 56 -17z
m1228 -140 c60 -12 80 -41 114 -162 l12 -45 -95 42 c-118 53 -341 43 -503 -21
-58 -23 -112 -42 -120 -42 -14 0 -91 123 -80 128 3 1 28 14 55 30 102 57 470
99 617 70z m1729 -161 c132 -12 134 -13 122 -65 -25 -103 -69 -110 -301 -45
-82 24 -83 25 -62 85 17 49 29 59 64 50 23 -7 103 -18 177 -25z m-1716 -167
c41 -15 51 -33 51 -86 l0 -66 -175 1 c-102 0 -211 -11 -262 -28 -87 -29 -135
-9 -116 48 29 94 367 183 502 131z m1230 -60 c22 0 32 -17 32 -54 -1 -63 44
-91 224 -138 208 -54 345 -20 345 88 0 58 92 52 180 -13 289 -214 -541 -214
-964 -1 -138 70 -99 152 60 130 49 -7 104 -12 123 -12z m214 -29 c373 -79 351
-72 327 -110 -37 -60 -354 -15 -455 64 -36 28 9 80 56 65 20 -7 52 -15 72 -19z
m-393 -150 c0 -22 -47 -61 -74 -61 -16 0 -26 24 -26 60 0 56 3 58 50 36 28
-12 50 -28 50 -35z m159 -53 c5 -5 -7 -24 -26 -43 -36 -35 -93 3 -93 61 0 17
99 2 119 -18z m109 -20 c37 -14 42 -59 9 -80 -13 -8 -35 2 -50 23 -46 63 -30
84 41 57z m-1314 -60 c13 -39 -94 -68 -250 -68 -158 1 -230 22 -194 58 42 41
431 50 444 10z m1551 -30 c-12 -47 -60 -49 -108 -5 -54 49 -46 59 41 51 65 -7
76 -14 67 -46z m-1363 -9 c223 -78 111 -164 -276 -209 -178 -21 -274 -22 -459
-4 -259 25 -303 46 -230 105 67 55 262 114 280 84 61 -99 496 -80 535 24 15
39 41 39 150 0z m1658 2 c0 -42 -37 -58 -71 -30 -43 36 -35 59 21 59 30 0 50
-11 50 -29z m120 -12 c-23 -43 -60 -36 -60 12 0 16 18 29 41 29 34 0 37 -6 19
-41z m-1660 -230 c0 -84 -44 -110 -101 -58 -43 39 -70 25 -82 -41 -11 -57 -63
-50 -77 10 -10 42 -26 52 -101 60 -81 10 -75 12 64 24 84 7 179 27 210 44 81
43 87 40 87 -39z m-742 -28 c190 -1 174 -19 -30 -33 -132 -9 -166 -19 -210
-60 l-51 -49 -24 51 c-47 105 -34 125 72 108 52 -9 162 -16 243 -17z m-608 -3
c44 -12 109 -40 145 -61 l64 -40 -44 -63 c-25 -35 -46 -67 -48 -70 -1 -3 -42
15 -90 40 -475 248 -845 -463 -433 -834 62 -55 121 -91 153 -92 112 -5 176 6
248 41 l74 36 51 -66 c71 -94 64 -116 -55 -160 -372 -138 -726 32 -817 391
-152 608 206 1027 752 878z m2025 -47 c458 -143 381 -575 -117 -659 -148 -25
-184 -43 -126 -65 21 -8 101 -67 178 -132 185 -155 310 -225 480 -267 173 -42
163 -30 113 -136 -55 -117 -58 -118 -206 -70 -272 90 -545 299 -602 463 -40
116 -59 56 -52 -165 l8 -220 -170 0 c-153 0 -203 23 -92 43 75 14 80 122 10
246 -35 62 -57 125 -51 145 6 20 20 153 32 296 25 317 38 442 53 517 l11 58
213 -10 c117 -6 260 -26 318 -44z m-728 -113 c22 -109 14 -155 -31 -187 -69
-48 -86 -39 -112 59 -27 101 -31 143 -11 124 21 -21 67 27 67 69 0 63 73 9 87
-65z m-186 -163 c41 -130 83 -247 94 -260 10 -14 39 -83 65 -155 26 -71 77
-190 113 -264 37 -74 60 -138 52 -142 -39 -22 -223 -59 -247 -50 -16 6 -49 82
-75 169 -26 86 -67 197 -90 246 l-43 90 -160 5 c-88 3 -175 9 -194 14 -27 6
-41 -17 -66 -105 -18 -62 -45 -147 -61 -188 -16 -42 -29 -96 -29 -120 0 -118
-40 -195 -99 -195 -106 0 -124 16 -91 80 16 31 34 109 40 173 19 211 34 317
49 347 15 29 32 103 54 229 6 33 28 114 49 180 20 67 38 136 38 153 0 29 33
33 263 30 l263 -2 75 -235z m1861 193 c347 -79 507 -275 504 -618 -3 -305
-177 -466 -596 -552 -216 -44 -217 -44 -199 28 10 41 28 53 96 64 403 62 596
297 503 616 -62 214 -305 368 -551 350 l-86 -6 -7 -150 c-4 -82 -9 -292 -11
-465 -4 -271 -9 -314 -35 -304 -16 7 -56 17 -87 23 l-58 12 14 322 c8 177 18
402 22 500 4 98 14 185 23 193 44 43 245 38 468 -13z m-2602 -71 c0 -88 -50
-241 -85 -260 -40 -21 -259 -82 -263 -72 -56 143 -236 126 -260 -26 -20 -123
45 -208 146 -190 73 14 306 14 319 1 10 -11 -62 -297 -81 -319 -9 -11 -16 1
-16 26 0 65 -38 69 -148 13 -163 -83 -263 -61 -397 87 -107 118 -121 155 -106
269 42 316 313 493 556 363 l96 -50 69 55 c41 33 70 74 70 99 0 33 11 42 50
40 32 -2 50 -15 50 -36z m931 -297 c-22 -118 -26 -125 -45 -80 -50 121 -49
134 8 176 70 51 67 58 37 -96z m1644 50 c438 -219 332 -634 -180 -703 l-95
-12 0 107 c0 60 6 236 13 393 l13 285 54 0 c30 0 118 -32 195 -70z m-2985 -85
c24 -56 86 -58 235 -7 l112 39 -28 -94 c-16 -51 -29 -95 -29 -98 -1 -19 -157
1 -214 28 -66 32 -72 32 -89 0 -22 -39 -79 -43 -113 -9 -32 32 -31 170 1 183
50 21 105 2 125 -42z m2395 -180 c-8 -107 -15 -233 -15 -280 0 -48 -10 -85
-22 -85 -33 0 -247 143 -344 230 l-85 78 105 26 c163 41 275 101 312 167 55
96 64 70 49 -136z"/>
<path d="M4140 7463 c-37 -11 -49 -28 -47 -64 2 -27 6 -232 9 -456 l5 -408 95
12 c369 43 567 387 407 707 -85 170 -293 263 -469 209z m170 -140 c189 -86
320 -325 252 -458 -9 -19 -29 -60 -43 -90 -31 -65 -173 -150 -281 -168 l-76
-12 -6 368 c-7 453 -15 436 154 360z"/>
<path d="M2033 5047 c-29 -30 -9 -91 66 -208 l79 -122 121 -5 c134 -5 119 -19
245 223 55 107 32 145 -61 97 -78 -41 -274 -41 -350 -2 -64 33 -80 36 -100 17z
m332 -114 c128 3 130 1 77 -80 -31 -47 -53 -58 -135 -63 l-98 -7 -44 90 -44
90 64 -17 c36 -9 117 -15 180 -13z"/>
<path d="M1620 5100 c0 -24 118 -100 155 -100 14 0 25 14 25 30 0 17 -16 30
-36 30 -20 0 -54 13 -75 29 -46 35 -69 39 -69 11z"/>
<path d="M2985 5075 c-73 -37 -116 -95 -70 -95 36 0 185 92 185 115 0 33 -14
31 -115 -20z"/>
<path d="M1432 4964 c-22 -36 46 -68 167 -79 101 -9 121 -5 121 20 0 23 -27
33 -105 39 -58 5 -120 15 -138 24 -18 8 -38 6 -45 -4z"/>
<path d="M3137 4919 c-40 -10 -116 -21 -169 -26 -53 -4 -100 -19 -105 -33 -6
-20 27 -22 149 -11 199 18 252 30 243 57 -10 30 -34 32 -118 13z"/>
<path d="M1700 4768 c-27 -15 -70 -28 -95 -28 -27 0 -45 -12 -45 -30 0 -38 30
-38 146 2 52 18 94 44 94 60 0 34 -34 33 -100 -4z"/>
<path d="M2800 4673 c0 -51 337 -107 355 -58 5 17 -14 25 -61 25 -38 0 -107
14 -154 30 -105 37 -140 38 -140 3z"/>
<path d="M1784 4611 c-30 -32 -38 -52 -23 -62 34 -21 119 32 119 74 0 51 -41
46 -96 -12z"/>
<path d="M1990 4519 c-20 -44 -30 -86 -21 -94 20 -20 91 70 91 116 0 69 -34
58 -70 -22z"/>
<path d="M2651 4561 c-26 -42 207 -197 253 -168 33 20 14 44 -45 57 -34 8 -92
40 -129 73 -38 33 -72 50 -79 38z"/>
<path d="M2212 4496 c-24 -74 -31 -136 -16 -136 31 0 64 48 64 93 0 51 -36 83
-48 43z"/>
<path d="M2440 4494 c0 -16 14 -40 30 -54 17 -14 30 -36 30 -50 0 -31 56 -80
73 -64 16 16 -77 179 -108 189 -14 5 -25 -5 -25 -21z"/>
<path d="M2893 2015 c-19 -69 -15 -361 5 -393 23 -35 263 -17 407 30 207 68
227 239 39 320 -222 96 -432 116 -451 43z m325 -109 c85 -35 142 -82 142 -117
0 -61 -233 -126 -395 -111 -17 1 -25 45 -25 144 l0 142 103 -14 c57 -8 135
-28 175 -44z"/>
<path d="M1878 1925 c-3 -89 -12 -175 -26 -248 -20 -103 21 -124 223 -113 225
13 231 17 184 111 -21 41 -52 126 -69 188 -33 125 -51 136 -215 137 l-95 0 -2
-75z m213 -120 c6 -30 20 -76 30 -101 42 -103 6 -124 -158 -91 -69 13 -85 86
-43 196 29 77 154 75 171 -4z"/>
<path d="M2767 7617 c-19 -22 -26 -56 -19 -100 6 -37 15 -260 22 -497 6 -236
16 -458 22 -492 l11 -62 334 -14 c426 -17 569 -14 585 10 10 17 1 218 -11 233
-2 2 -88 8 -192 13 -158 8 -268 17 -342 30 -8 1 -14 94 -15 207 -1 113 -8 318
-17 455 l-15 250 -166 0 c-130 0 -173 -7 -197 -33z m340 -322 c7 -166 13 -372
13 -458 l0 -157 55 -3 c30 -2 82 -7 115 -11 33 -4 130 -7 215 -8 148 0 155 -2
167 -50 18 -69 20 -69 -203 -45 -109 11 -285 16 -391 10 l-191 -11 5 274 c5
232 -15 627 -36 726 -4 20 21 31 84 38 160 19 152 32 167 -305z"/>
</g>
</svg>
